<svg xmlns="http://www.w3.org/2000/svg" viewBox="0 0 574 147"><g fill="none" fill-rule="evenodd"><path d="M13.965 131.88c3.99 0 7.21-1.995 9.66-5.985S27.3 116.13 27.3 108.57c0-3.43-.297-7.787-.893-13.072-.595-5.285-1.347-10.098-2.257-14.438 3.15.63 5.565.945 7.245.945 8.68 0 13.02-2.765 13.02-8.295 0-2.94-.98-4.41-2.94-4.41-.63 0-1.26.035-1.89.105-.63.07-1.225.14-1.785.21-3.43.49-6.545.735-9.345.735-.84 0-1.575-.035-2.205-.105-1.96-.14-3.64-.21-5.04-.21-.77 0-1.645.525-2.625 1.575-.98 1.05-1.803 2.275-2.468 3.675s-.962 2.555-.892 3.465c1.26 5.67 2.258 11.06 2.993 16.17.735 5.11 1.102 10.395 1.102 15.855 0 7.28-1.05 10.92-3.15 10.92-1.12 0-1.925-3.797-2.415-11.392a345.042 345.042 0 01-.735-22.208c0-5.18.35-11.2 1.05-18.06 19.67-19.39 29.505-37.31 29.505-53.76 0-4.97-.928-8.925-2.783-11.865C38.938 1.47 36.365 0 33.075 0c-6.09 0-11.673 4.532-16.748 13.598-5.075 9.065-9.065 20.51-11.97 34.334C1.453 61.757 0 75.39 0 88.83c0 14.42 1.067 25.2 3.203 32.34 2.135 7.14 5.722 10.71 10.762 10.71zm1.995-75.81c1.33-7.84 2.905-15.278 4.725-22.313 1.82-7.034 3.658-12.687 5.513-16.957 1.854-4.27 3.412-6.405 4.672-6.405 1.75 0 2.625 2.135 2.625 6.405-.07 6.02-1.61 12.477-4.62 19.372C25.865 43.069 21.56 49.7 15.96 56.07zm58.38 43.155c3.01 0 6.125-1.225 9.345-3.675 3.22-2.45 6.265-5.46 9.135-9.03 1.33-1.54 1.995-3.71 1.995-6.51 0-1.47-.263-2.625-.787-3.465-.526-.84-1.243-1.26-2.153-1.26-1.05 0-1.995.49-2.835 1.47-3.22 3.85-5.775 6.633-7.665 8.348-1.89 1.715-3.5 2.572-4.83 2.572-.84 0-1.523-.315-2.047-.945-.526-.63-.788-1.47-.788-2.52 0-3.15.805-8.75 2.415-16.8 1.05-5.53 1.575-9.03 1.575-10.5 0-2.45-1.715-3.675-5.145-3.675-1.61 0-3.15.14-4.62.42-.35-1.54-.788-2.608-1.313-3.203-.525-.594-1.557-.892-3.097-.892-4.83 0-9.398 1.523-13.703 4.567-4.305 3.045-7.752 7.07-10.342 12.075-2.59 5.005-3.885 10.308-3.885 15.908 0 5.11 1.295 9.24 3.885 12.39 2.59 3.15 6.055 4.725 10.395 4.725 5.53 0 10.115-2.94 13.755-8.82.98 2.73 2.432 4.882 4.357 6.457 1.925 1.576 4.043 2.363 6.353 2.363zM53.655 88.62c-1.54 0-2.748-.525-3.623-1.575-.874-1.05-1.312-2.66-1.312-4.83 0-3.92.735-7.63 2.205-11.13 1.47-3.5 3.448-6.317 5.933-8.452 2.485-2.136 5.197-3.238 8.137-3.308l-3.885 19.32c-.63 3.01-1.645 5.425-3.045 7.245-1.4 1.82-2.87 2.73-4.41 2.73zm39.27 57.855c6.65 0 12.127-4.148 16.433-12.442 4.304-8.295 7.787-19.688 10.447-34.178l20.16-13.545c1.05-.7 1.82-1.505 2.31-2.415.49-.91.735-2.17.735-3.78 0-1.33-.262-2.432-.787-3.307-.526-.876-1.243-1.313-2.153-1.313-.7 0-1.505.28-2.415.84-5.11 3.36-10.36 7.07-15.75 11.13l2.73-16.905c1.82-10.29 2.73-16.31 2.73-18.06 0-.98-.315-1.68-.945-2.1-.63-.42-1.75-.63-3.36-.63-2.31 0-4.043.455-5.198 1.365-1.154.91-2.012 2.415-2.572 4.515-1.68 6.23-3.413 11.48-5.198 15.75-1.784 4.27-3.465 7.455-5.04 9.555-1.575 2.1-2.887 3.15-3.937 3.15-1.47 0-2.205-1.33-2.205-3.99 0-1.68.21-3.832.63-6.457.42-2.626.91-5.373 1.47-8.243.42-2.1.98-4.445 1.68-7.035.77-3.22 1.155-5.11 1.155-5.67 0-.98-.297-1.715-.892-2.205-.596-.49-1.663-.735-3.203-.735-2.73 0-4.725.455-5.985 1.365-1.26.91-2.24 2.415-2.94 4.515-1.61 4.9-2.765 9.538-3.465 13.913-.7 4.374-1.05 9.187-1.05 14.437 0 4.34.998 7.963 2.992 10.868 1.995 2.904 4.568 4.357 7.718 4.357 2.8 0 5.46-1.313 7.98-3.938 2.52-2.625 4.48-6.457 5.88-11.497-.63 4.83-1.19 8.54-1.68 11.13l-.315 2.415c-7.49 5.74-13.282 10.833-17.378 15.278-4.095 4.445-6.895 8.382-8.4 11.812-1.504 3.43-2.257 6.79-2.257 10.08 0 3.57 1.12 6.458 3.36 8.662 2.24 2.206 5.145 3.308 8.715 3.308zm1.155-10.185c-1.05 0-1.802-.385-2.257-1.155-.455-.77-.683-1.75-.683-2.94 0-2.8 1.207-6.072 3.623-9.817 2.414-3.746 6.317-7.893 11.707-12.443-2.17 9.45-4.34 16.205-6.51 20.265-2.17 4.06-4.13 6.09-5.88 6.09zm64.155-37.065c5.39 0 10.447-1.33 15.172-3.99 4.725-2.66 8.383-5.565 10.973-8.715 1.33-1.54 1.995-3.71 1.995-6.51 0-1.47-.262-2.625-.787-3.465-.525-.84-1.243-1.26-2.153-1.26-1.05 0-1.995.49-2.835 1.47a35.545 35.545 0 01-10.447 8.663c-4.025 2.204-7.613 3.307-10.763 3.307-4.9 0-8.225-1.61-9.975-4.83 8.26-2.03 14.123-4.777 17.588-8.242 3.465-3.466 5.197-7.613 5.197-12.443 0-4.13-1.225-7.403-3.675-9.818-2.45-2.415-5.705-3.622-9.765-3.622-4.55 0-8.627 1.225-12.232 3.675-3.605 2.45-6.423 5.758-8.453 9.922-2.03 4.166-3.045 8.663-3.045 13.493 0 6.93 2.03 12.39 6.09 16.38 4.06 3.99 9.765 5.985 17.115 5.985zm-10.5-23.52v-.21c0-4.27.892-7.91 2.677-10.92 1.785-3.01 3.973-4.515 6.563-4.515 1.26 0 2.257.402 2.993 1.207.734.805 1.102 1.873 1.102 3.203 0 2.59-1.19 4.865-3.57 6.825s-5.635 3.43-9.765 4.41zm88.62 23.52c4.62 0 8.715-1.19 12.285-3.57 3.57-2.38 6.86-5.425 9.87-9.135 1.33-1.54 1.995-3.71 1.995-6.51 0-1.47-.262-2.625-.788-3.465-.524-.84-1.242-1.26-2.152-1.26-1.05 0-1.995.49-2.835 1.47-3.15 3.64-5.88 6.37-8.19 8.19-2.31 1.82-4.97 2.73-7.98 2.73-3.71 0-6.423-1.47-8.137-4.41-1.715-2.94-2.573-8.05-2.573-15.33 0-3.5.105-6.93.315-10.29h12.705c7.91 0 11.865-2.415 11.865-7.245 0-1.33-.245-2.24-.735-2.73-.49-.49-1.295-.735-2.415-.735h-9.555c7.63-7.63 11.445-16.38 11.445-26.25 0-3.92-.84-7.175-2.52-9.765-1.68-2.59-3.99-3.885-6.93-3.885-3.92 0-7.56 1.785-10.92 5.355-3.36 3.57-6.23 8.365-8.61 14.385-2.38 6.02-4.235 12.74-5.565 20.16h-9.555c7.63-7.63 11.445-16.38 11.445-26.25 0-3.92-.84-7.175-2.52-9.765-1.68-2.59-3.99-3.885-6.93-3.885-3.92 0-7.56 1.785-10.92 5.355-3.36 3.57-6.23 8.365-8.61 14.385-2.38 6.02-4.235 12.74-5.565 20.16h-6.405c-3.15 0-4.725 1.96-4.725 5.88 0 1.68.367 2.905 1.102 3.675.735.77 2.153 1.155 4.253 1.155h4.305c-.35 4.2-.525 8.015-.525 11.445 0 9.24 1.558 16.572 4.672 21.998 3.115 5.425 7.998 8.137 14.648 8.137 3.43 0 6.65-1.05 9.66-3.15 3.01-2.1 5.425-4.62 7.245-7.56 3.36 7.14 9.31 10.71 17.85 10.71zm-39.9-51.765c.77-5.67 1.732-10.833 2.887-15.488 1.155-4.655 2.38-8.295 3.675-10.92 1.296-2.625 2.468-3.937 3.518-3.937 1.54 0 2.31 2.065 2.31 6.195 0 3.64-1.032 7.683-3.097 12.128-2.065 4.444-5.163 8.452-9.293 12.022zm32.655 0c.77-5.67 1.732-10.833 2.887-15.488 1.155-4.655 2.38-8.295 3.675-10.92 1.296-2.625 2.468-3.937 3.518-3.937 1.54 0 2.31 2.065 2.31 6.195 0 3.64-1.032 7.683-3.097 12.128-2.065 4.444-5.163 8.452-9.293 12.022zm-25.305 40.215c-2.73 0-4.847-1.522-6.353-4.567-1.505-3.046-2.257-8.103-2.257-15.173 0-3.5.105-6.93.315-10.29h19.95c-.35 4.2-.525 8.015-.525 11.445 0 3.43.175 6.23.525 8.4-1.47 2.87-3.255 5.285-5.355 7.245-2.1 1.96-4.2 2.94-6.3 2.94zm69.825 11.55c5.39 0 10.447-1.33 15.173-3.99 4.724-2.66 8.382-5.565 10.972-8.715 1.33-1.54 1.995-3.71 1.995-6.51 0-1.47-.262-2.625-.787-3.465-.526-.84-1.243-1.26-2.153-1.26-1.05 0-1.995.49-2.835 1.47a35.545 35.545 0 01-10.447 8.663c-4.026 2.204-7.613 3.307-10.763 3.307-4.9 0-8.225-1.61-9.975-4.83 8.26-2.03 14.123-4.777 17.587-8.242 3.466-3.466 5.198-7.613 5.198-12.443 0-4.13-1.225-7.403-3.675-9.818-2.45-2.415-5.705-3.622-9.765-3.622-4.55 0-8.627 1.225-12.232 3.675-3.606 2.45-6.423 5.758-8.453 9.922-2.03 4.166-3.045 8.663-3.045 13.493 0 6.93 2.03 12.39 6.09 16.38 4.06 3.99 9.765 5.985 17.115 5.985zm-10.5-23.52v-.21c0-4.27.892-7.91 2.678-10.92 1.784-3.01 3.972-4.515 6.562-4.515 1.26 0 2.257.402 2.993 1.207.735.805 1.102 1.873 1.102 3.203 0 2.59-1.19 4.865-3.57 6.825s-5.635 3.43-9.765 4.41zm42 23.52c2.59 0 4.9-.735 6.93-2.205 2.03-1.47 4.445-4.2 7.245-8.19 2.45-3.5 4.69-6.895 6.72-10.185 2.73.84 5.635 1.26 8.715 1.26 3.64 0 7.07-.525 10.29-1.575 1.68-.56 2.94-1.453 3.78-2.677.84-1.226 1.26-2.923 1.26-5.093 0-1.19-.28-2.135-.84-2.835-.56-.7-1.365-1.05-2.415-1.05-.49 0-.84.035-1.05.105l-2.835.525c-4.41.91-7.945 1.435-10.605 1.575 1.68-4.06 2.52-7.665 2.52-10.815 0-2.73-.63-4.813-1.89-6.247-1.26-1.435-2.905-2.153-4.935-2.153-2.31 0-4.375.7-6.195 2.1-1.82 1.4-3.255 3.22-4.305 5.46-1.05 2.24-1.575 4.55-1.575 6.93 0 2.8.525 5.215 1.575 7.245-2.1 3.71-5.25 8.68-9.45 14.91-.98-12.88-1.47-23.345-1.47-31.395 0-1.89-.438-3.237-1.313-4.042-.874-.805-2.222-1.208-4.042-1.208-2.38 0-4.165.455-5.355 1.365-1.19.91-1.82 2.52-1.89 4.83v3.675c0 7.35.42 15.925 1.26 25.725.42 4.83 1.452 8.365 3.098 10.605 1.644 2.24 3.902 3.36 6.772 3.36zm49.56-56.385c3.01 0 5.425-.823 7.245-2.468 1.82-1.645 2.73-3.867 2.73-6.667 0-2.31-.805-4.095-2.415-5.355-1.61-1.26-3.71-1.89-6.3-1.89-2.87 0-5.267.822-7.192 2.467-1.925 1.646-2.888 3.693-2.888 6.143 0 2.45.735 4.358 2.205 5.722 1.47 1.365 3.675 2.048 6.615 2.048zm-.84 56.385c6.02 0 12.495-4.235 19.425-12.705 1.33-1.54 1.995-3.71 1.995-6.51 0-1.47-.262-2.625-.787-3.465-.526-.84-1.243-1.26-2.153-1.26-1.05 0-1.995.49-2.835 1.47-3.15 3.78-5.67 6.545-7.56 8.295-1.89 1.75-3.465 2.625-4.725 2.625-1.33 0-2.275-.56-2.835-1.68-.56-1.12-.84-2.73-.84-4.83 0-2.73.84-7.945 2.52-15.645 1.33-6.37 1.995-10.43 1.995-12.18 0-2.38-1.785-3.57-5.355-3.57-2.31 0-3.99.42-5.04 1.26-1.05.84-1.89 2.38-2.52 4.62-1.26 4.27-2.293 8.872-3.097 13.807-.805 4.936-1.208 8.978-1.208 12.128 0 5.32 1.033 9.59 3.098 12.81 2.065 3.22 5.372 4.83 9.922 4.83zm31.815 0c4.48 0 8.487-1.19 12.022-3.57 3.536-2.38 6.808-5.425 9.818-9.135 1.33-1.54 1.995-3.71 1.995-6.51 0-1.47-.262-2.625-.788-3.465-.524-.84-1.242-1.26-2.152-1.26-1.05 0-1.995.49-2.835 1.47-3.36 3.99-6.125 6.808-8.295 8.453-2.17 1.645-4.69 2.467-7.56 2.467-1.82 0-3.29-.612-4.41-1.837s-1.925-3.273-2.415-6.143c7.91-10.78 14.175-21.665 18.795-32.655 4.62-10.99 6.93-20.65 6.93-28.98 0-5.81-.962-10.272-2.887-13.387S399.315 0 395.954 0c-5.95 0-11.077 3.92-15.382 11.76s-7.56 17.22-9.765 28.14c-2.205 10.92-3.308 20.65-3.308 29.19 0 8.89 1.488 16.135 4.462 21.735 2.976 5.6 7.543 8.4 13.703 8.4zM380.31 65.52c.14-7.91.98-16.17 2.52-24.78s3.325-15.82 5.355-21.63c2.03-5.81 3.85-8.715 5.46-8.715 1.96 0 2.94 2.66 2.94 7.98 0 6.79-1.47 14.297-4.41 22.523-2.94 8.224-6.895 16.432-11.865 24.622zm39.585 33.705c4.48 0 8.488-1.19 12.023-3.57 3.534-2.38 6.807-5.425 9.817-9.135 1.33-1.54 1.995-3.71 1.995-6.51 0-1.47-.263-2.625-.788-3.465-.524-.84-1.242-1.26-2.152-1.26-1.05 0-1.995.49-2.835 1.47-3.36 3.99-6.125 6.808-8.295 8.453-2.17 1.645-4.69 2.467-7.56 2.467-1.82 0-3.29-.612-4.41-1.837s-1.925-3.273-2.415-6.143c7.91-10.78 14.175-21.665 18.795-32.655 4.62-10.99 6.93-20.65 6.93-28.98 0-5.81-.962-10.272-2.887-13.387S433.545 0 430.185 0c-5.95 0-11.077 3.92-15.382 11.76s-7.56 17.22-9.765 28.14c-2.206 10.92-3.308 20.65-3.308 29.19 0 8.89 1.487 16.135 4.462 21.735 2.976 5.6 7.543 8.4 13.703 8.4zM414.54 65.52c.14-7.91.98-16.17 2.52-24.78s3.325-15.82 5.355-21.63c2.03-5.81 3.85-8.715 5.46-8.715 1.96 0 2.94 2.66 2.94 7.98 0 6.79-1.47 14.297-4.41 22.523-2.94 8.224-6.895 16.432-11.865 24.622zm40.32 33.705c4.41 0 8.207-.84 11.392-2.52a20.443 20.443 0 007.718-7.035c1.19-1.82 1.785-3.99 1.785-6.51 0-1.47-.262-2.625-.788-3.465-.524-.84-1.242-1.26-2.152-1.26-1.05 0-1.995.525-2.835 1.575-2.45 3.15-4.603 5.39-6.458 6.72-1.854 1.33-4.217 1.995-7.087 1.995-3.99 0-6.825-1.61-8.505-4.83 8.33-2.03 14.228-4.777 17.692-8.242 3.465-3.466 5.198-7.613 5.198-12.443 0-4.13-1.225-7.403-3.675-9.818-2.45-2.415-5.705-3.622-9.765-3.622-4.55 0-8.627 1.225-12.233 3.675-3.604 2.45-6.422 5.758-8.452 9.922-2.03 4.166-3.045 8.663-3.045 13.493 0 6.86 1.855 12.302 5.565 16.328 3.71 4.025 8.925 6.037 15.645 6.037zm-8.505-23.52v-.21c0-4.27.892-7.91 2.678-10.92 1.784-3.01 3.972-4.515 6.562-4.515 1.26 0 2.257.402 2.992 1.207.736.805 1.103 1.873 1.103 3.203 0 2.59-1.19 4.865-3.57 6.825s-5.635 3.43-9.765 4.41zm43.995 23.52c3.15 0 5.635-.962 7.455-2.887 1.82-1.925 2.73-4.498 2.73-7.718 0-2.94-.788-5.163-2.363-6.668-1.575-1.504-3.902-2.257-6.982-2.257-3.22 0-5.723.945-7.507 2.835-1.786 1.89-2.678 4.41-2.678 7.56 0 2.73.788 4.935 2.363 6.615 1.575 1.68 3.902 2.52 6.982 2.52zm31.5-56.385c3.01 0 5.425-.823 7.245-2.468 1.82-1.645 2.73-3.867 2.73-6.667 0-2.31-.805-4.095-2.415-5.355-1.61-1.26-3.71-1.89-6.3-1.89-2.87 0-5.268.822-7.192 2.467-1.926 1.646-2.888 3.693-2.888 6.143 0 2.45.735 4.358 2.205 5.722 1.47 1.365 3.675 2.048 6.615 2.048zm-28.56 103.635c7.56 0 13.65-5.267 18.27-15.802 4.62-10.535 8.225-24.763 10.815-42.683.63-4.27 1.085-7.245 1.365-8.925 2.17-14.14 3.255-22.715 3.255-25.725 0-1.12-.332-1.995-.998-2.625-.664-.63-2.047-.945-4.147-.945-2.59 0-4.515.472-5.775 1.417-1.26.946-2.03 2.433-2.31 4.463-.91 7.49-1.575 13.125-1.995 16.905-.56 6.51-1.33 13.125-2.31 19.845l-.735 5.355c-10.64 8.26-17.885 15.208-21.735 20.843-3.85 5.635-5.775 10.937-5.775 15.907 0 3.57 1.103 6.458 3.308 8.662 2.204 2.206 5.127 3.308 8.767 3.308zm1.155-10.185c-1.96 0-2.94-1.365-2.94-4.095 0-2.8 1.173-6.037 3.517-9.712 2.346-3.675 6.178-7.788 11.498-12.338-1.89 9.17-3.92 15.82-6.09 19.95-2.17 4.13-4.165 6.195-5.985 6.195zm58.695-34.755c3.15 0 5.95-.805 8.4-2.415 2.45-1.61 4.358-3.728 5.723-6.353a17.842 17.842 0 002.047-8.347c0-2.45-.577-4.707-1.732-6.773-1.155-2.065-2.853-4.567-5.093-7.507-1.54-1.89-2.678-3.465-3.413-4.725-.735-1.26-1.102-2.415-1.102-3.465 0-1.75.63-3.885 1.89-6.405.49-.91.875-1.82 1.155-2.73.28-.91.42-1.575.42-1.995 0-.77-.385-1.33-1.155-1.68-.77-.35-2.135-.525-4.095-.525-4.2 0-6.965 1.54-8.295 4.62-2.1 4.83-3.798 8.645-5.092 11.445-1.295 2.8-2.573 5.215-3.833 7.245-1.96 3.08-4.865 7-8.715 11.76l-1.365 1.68c-.98 1.19-1.47 2.485-1.47 3.885 0 1.19.35 2.188 1.05 2.993.7.805 1.61 1.207 2.73 1.207 1.4 0 2.73-.63 3.99-1.89a76.91 76.91 0 006.983-7.77c2.135-2.73 4.287-6.16 6.457-10.29.98 1.12 2.03 2.433 3.15 3.938a25.705 25.705 0 012.783 4.672 13.517 13.517 0 011.207 5.145c-.63-.07-1.558-.192-2.783-.367-1.224-.175-2.292-.263-3.202-.263-2.59 0-4.55.665-5.88 1.995s-1.995 2.905-1.995 4.725c0 2.1.962 3.99 2.888 5.67 1.924 1.68 4.707 2.52 8.347 2.52z" fill="#FFF" fill-rule="nonzero"/><path d="M32.879 111.7h51.856c-3.144 3.873-5.75 7.458-7.808 12H30.735c1.496-3.309 2.144-9.62 2.144-12zM119.804 123.7c.978-2.815 2.631-8.162 3.446-12h361.768c-2.028 2.074-5.807 7.384-7.922 12H119.804zM523.306 111.7h43.853c2.288 0 5.456.266 6.233 4.778.777 4.513-1.648 8.131-3.945 8.517.009-1.02-.83-1.295-2.312-1.295H520.54c.495-1.485 1.417-5.485 2.766-12z" fill="#F85025"/></g></svg>