<svg width="100%" xmlns="http://www.w3.org/2000/svg" viewBox="0 0 380 250"><g fill="#F85025" fill-rule="evenodd"><path d="M23.777 225.09c6.794 0 12.276-3.405 16.448-10.215 4.171-6.81 6.257-16.667 6.257-29.57 0-5.855-.507-13.292-1.52-22.312-1.013-9.02-2.294-17.234-3.843-24.642 5.363 1.076 9.475 1.613 12.335 1.613 14.779 0 22.168-4.72 22.168-14.158 0-5.017-1.668-7.526-5.005-7.526-1.073 0-2.146.06-3.218.179-1.073.12-2.086.239-3.04.358-5.84.837-11.143 1.255-15.91 1.255-1.43 0-2.682-.06-3.755-.18-3.337-.238-6.198-.358-8.581-.358-1.311 0-2.801.896-4.47 2.688-1.668 1.792-3.069 3.883-4.2 6.273-1.133 2.39-1.64 4.36-1.52 5.914 2.145 9.677 3.843 18.877 5.095 27.598 1.251 8.722 1.877 17.742 1.877 27.061 0 12.425-1.788 18.638-5.363 18.638-1.907 0-3.278-6.481-4.112-19.444-.835-12.963-1.252-25.598-1.252-37.904 0-8.84.596-19.115 1.788-30.824 33.49-33.094 50.236-63.68 50.236-91.756 0-8.483-1.579-15.233-4.737-20.251C66.296 2.509 61.916 0 56.315 0 45.945 0 36.44 7.736 27.8 23.208 19.159 38.68 12.365 58.214 7.42 81.81 2.472 105.406 0 128.674 0 151.613c0 24.612 1.818 43.01 5.453 55.197 3.635 12.186 9.743 18.28 18.324 18.28zm3.397-129.391c2.264-13.381 4.946-26.075 8.045-38.083 3.099-12.007 6.227-21.654 9.386-28.942 3.158-7.288 5.81-10.932 7.955-10.932 2.98 0 4.47 3.644 4.47 10.932-.12 10.275-2.742 21.296-7.867 33.064-5.124 11.769-12.454 23.089-21.989 33.96zm99.4 73.656c5.125 0 10.428-2.091 15.91-6.273 5.483-4.181 10.668-9.319 15.554-15.412 2.265-2.628 3.397-6.332 3.397-11.11 0-2.51-.447-4.481-1.34-5.915-.895-1.434-2.116-2.15-3.666-2.15-1.788 0-3.396.836-4.827 2.509-5.482 6.57-9.832 11.32-13.05 14.247-3.218 2.927-5.96 4.39-8.224 4.39-1.43 0-2.592-.537-3.486-1.612-.894-1.076-1.341-2.51-1.341-4.301 0-5.377 1.37-14.935 4.112-28.674 1.788-9.439 2.681-15.412 2.681-17.921 0-4.182-2.92-6.273-8.76-6.273-2.74 0-5.363.24-7.866.717-.596-2.628-1.34-4.45-2.234-5.466-.894-1.015-2.652-1.523-5.274-1.523-8.224 0-16 2.598-23.33 7.796-7.33 5.197-13.2 12.066-17.61 20.609-4.41 8.542-6.615 17.592-6.615 27.15 0 8.722 2.205 15.771 6.615 21.147 4.41 5.377 10.31 8.065 17.699 8.065 9.415 0 17.222-5.018 23.42-15.054 1.668 4.66 4.141 8.333 7.419 11.022 3.277 2.688 6.883 4.032 10.816 4.032zm-35.22-18.1c-2.621 0-4.677-.897-6.167-2.689-1.49-1.792-2.235-4.54-2.235-8.243 0-6.691 1.252-13.023 3.755-18.997 2.502-5.974 5.87-10.782 10.1-14.426 4.231-3.644 8.85-5.526 13.856-5.646l-6.615 32.975c-1.073 5.138-2.801 9.26-5.185 12.366-2.383 3.106-4.886 4.66-7.508 4.66zM158.218 250c12.872 0 23.181-8.96 30.928-26.882 7.747-17.92 13.826-42.234 18.235-72.939.477-3.106 2.086-13.082 4.827-29.928 3.1-17.563 4.649-27.778 4.649-30.645 0-1.673-.537-2.868-1.61-3.584-1.072-.717-2.979-1.076-5.72-1.076-3.933 0-6.883.777-8.85 2.33-1.966 1.553-3.426 4.122-4.38 7.706-2.86 10.633-5.81 19.594-8.85 26.882-3.038 7.288-5.899 12.724-8.58 16.308-2.682 3.584-4.917 5.376-6.704 5.376-2.503 0-3.755-2.27-3.755-6.81 0-2.867.358-6.54 1.073-11.021.715-4.48 1.55-9.17 2.503-14.068.715-3.584 1.668-7.587 2.86-12.007 1.311-5.496 1.967-8.722 1.967-9.678 0-1.672-.507-2.927-1.52-3.763-1.013-.837-2.83-1.255-5.453-1.255-4.648 0-8.044.777-10.19 2.33-2.145 1.553-3.814 4.122-5.006 7.706-2.74 8.363-4.707 16.278-5.9 23.746-1.191 7.467-1.787 15.68-1.787 24.641 0 7.408 1.698 13.59 5.095 18.549 3.397 4.958 7.777 7.437 13.14 7.437 4.768 0 9.297-2.24 13.587-6.72 4.29-4.48 7.628-11.022 10.012-19.624-1.073 8.243-2.026 14.576-2.86 18.996l-.537 4.122c-12.753 9.797-22.615 18.489-29.587 26.075-6.973 7.587-11.74 14.307-14.303 20.162-2.562 5.854-3.843 11.589-3.843 17.204 0 6.093 1.907 11.021 5.72 14.785 3.814 3.763 8.76 5.645 14.839 5.645zm1.967-17.384c-1.788 0-3.07-.657-3.844-1.97-.775-1.315-1.162-2.988-1.162-5.019 0-4.779 2.056-10.364 6.168-16.756 4.111-6.392 10.756-13.47 19.933-21.237-3.695 16.13-7.39 27.659-11.084 34.588-3.695 6.93-7.032 10.394-10.011 10.394zm79.376-63.261c5.364 0 9.595-1.643 12.693-4.928 3.1-3.286 4.649-7.677 4.649-13.173 0-5.017-1.341-8.81-4.023-11.38-2.682-2.568-6.644-3.852-11.889-3.852-5.482 0-9.743 1.612-12.782 4.838-3.04 3.226-4.559 7.527-4.559 12.903 0 4.66 1.341 8.423 4.023 11.29 2.681 2.868 6.644 4.302 11.888 4.302zm53.633-96.237c5.125 0 9.237-1.404 12.336-4.211 3.098-2.808 4.648-6.601 4.648-11.38 0-3.943-1.37-6.99-4.112-9.14-2.741-2.15-6.317-3.226-10.727-3.226-4.886 0-8.968 1.404-12.246 4.212-3.277 2.807-4.916 6.302-4.916 10.484 0 4.181 1.251 7.437 3.754 9.767 2.503 2.33 6.257 3.494 11.263 3.494zM244.566 250c12.872 0 23.24-8.99 31.107-26.971 7.866-17.981 14.004-42.264 18.414-72.85 1.073-7.288 1.847-12.365 2.324-15.233 3.695-24.134 5.542-38.77 5.542-43.907 0-1.911-.566-3.405-1.698-4.48-1.132-1.075-3.486-1.613-7.062-1.613-4.41 0-7.687.807-9.833 2.42-2.145 1.612-3.456 4.151-3.933 7.616-1.55 12.784-2.681 22.402-3.396 28.853a579.408 579.408 0 01-3.933 33.871l-1.252 9.14c-18.116 14.098-30.451 25.956-37.007 35.573-6.555 9.618-9.832 18.668-9.832 27.15 0 6.094 1.877 11.022 5.631 14.786 3.754 3.763 8.73 5.645 14.928 5.645zm1.967-17.384c-3.338 0-5.006-2.33-5.006-6.989 0-4.779 1.996-10.304 5.989-16.577 3.992-6.272 10.518-13.291 19.576-21.057-3.218 15.651-6.675 27.001-10.37 34.05-3.694 7.049-7.09 10.573-10.19 10.573zm99.935-59.319c5.364 0 10.131-1.373 14.303-4.121 4.171-2.748 7.419-6.362 9.743-10.843 2.324-4.48 3.486-9.23 3.486-14.247 0-4.182-.983-8.035-2.95-11.56-1.966-3.524-4.857-7.795-8.67-12.813-2.623-3.226-4.56-5.914-5.81-8.064-1.252-2.15-1.878-4.122-1.878-5.914 0-2.987 1.073-6.631 3.218-10.932a25.933 25.933 0 001.967-4.66c.476-1.553.715-2.688.715-3.405 0-1.314-.656-2.27-1.967-2.867-1.31-.597-3.635-.896-6.972-.896-7.151 0-11.859 2.628-14.123 7.885-3.576 8.244-6.466 14.755-8.671 19.534-2.205 4.78-4.38 8.901-6.525 12.366-3.338 5.257-8.284 11.947-14.839 20.072l-2.324 2.867c-1.668 2.031-2.503 4.241-2.503 6.63 0 2.032.596 3.734 1.788 5.108 1.192 1.374 2.741 2.061 4.648 2.061 2.384 0 4.648-1.075 6.794-3.226a131.159 131.159 0 0011.888-13.261c3.635-4.66 7.3-10.514 10.995-17.563 1.669 1.912 3.456 4.152 5.363 6.72 1.907 2.57 3.486 5.227 4.738 7.975 1.251 2.748 1.937 5.675 2.056 8.782-1.073-.12-2.652-.329-4.738-.628-2.085-.298-3.903-.448-5.452-.448-4.41 0-7.747 1.135-10.012 3.405-2.264 2.27-3.397 4.959-3.397 8.065 0 3.584 1.64 6.81 4.917 9.677 3.277 2.868 8.015 4.301 14.212 4.301z" fill-rule="nonzero"/><path d="M55.652 191H144c-5.357 6.455-9.795 12.43-13.303 20H52c2.55-5.514 3.652-16.032 3.652-20zM209.065 191H232c-3.57 3.457-10.22 12.307-13.942 20H203c1.721-4.691 4.631-13.603 6.065-20zM294.697 190h74.467c3.886 0 9.266.46 10.585 8.266 1.319 7.807-2.799 14.066-6.699 14.734.015-1.764-1.411-2.24-3.927-2.24H290c.84-2.57 2.406-9.49 4.697-20.76z"/></g></svg>