<svg version="1.1" id="Layer_1" xmlns="http://www.w3.org/2000/svg" x="0" y="0" width="100%" viewBox="0 0 4000 1080" xml:space="preserve"><style>.st0{fill:#FFF}</style><path class="st0" d="M95.7 678.7h234c97.2 0 123.6 30.4 123.6 144.8 0 106.4-26.4 144.8-124.8 144.8H95.7V678.7zm318.4 130.8c0-83.6-26-98.8-74-98.8H134.9v225.6h198.8c47.6 0 80.4-10.4 80.4-97.2v-29.6zM520.1 678.7h231.6c83.6 0 96.8 27.6 96.8 82v23.6c0 40.8-23.2 52-53.2 54.8v.8c40 7.2 49.6 28 49.6 54.4v74h-36.8v-63.6c0-45.2-22-50.8-57.6-50.8H559.3v114.4h-39.2V678.7zm227.2 143.2c43.6 0 62-11.6 62-42v-26.4c0-32.4-14-42.8-71.6-42.8H559.3v111.2h188zM1056.9 678.7h48.8l172 289.6h-44.4l-36-61.2h-232l-36 61.2h-44.4l172-289.6zm24.4 32l-97.2 164.4h194.4l-97.2-164.4zM1256.5 678.7h38.4l101.2 253.2 99.2-253.2h50.4l98 254.4 102.4-254.4h38.4l-115.2 289.6h-50.4l-98.4-254.4-98.4 254.4h-50.4l-115.2-289.6zM1825.3 678.7h247.2c60 0 76.8 31.2 76.8 64.4v24.8c0 20.8-11.6 42-46.8 45.6v1.6c30.8 1.6 58 13.2 58 57.2v34.4c0 40.4-36 61.6-84 61.6h-251.2V678.7zm284.8 62.4c0-26.4-29.2-30.4-41.2-30.4h-204.4v92.4h202.4c21.2 0 43.2-6.8 43.2-35.6v-26.4zm11.2 135.6c0-36-20-41.6-55.6-41.6h-201.2v101.2h207.2c36.4 0 49.6-13.2 49.6-38.8v-20.8zM2227.7 678.7h231.6c83.6 0 96.8 27.6 96.8 82v23.6c0 40.8-23.2 52-53.2 54.8v.8c40 7.2 49.6 28 49.6 54.4v74h-36.8v-63.6c0-45.2-22-50.8-57.6-50.8h-191.2v114.4h-39.2V678.7zm227.2 143.2c43.6 0 62-11.6 62-42v-26.4c0-32.4-14-42.8-71.6-42.8h-178.4v111.2h188zM2626.1 678.7h39.2v289.6h-39.2V678.7zM2740.9 678.7h234c97.2 0 123.6 30.4 123.6 144.8 0 106.4-26.4 144.8-124.8 144.8h-232.8V678.7zm318.4 130.8c0-83.6-26-98.8-74-98.8h-205.2v225.6h198.8c47.6 0 80.4-10.4 80.4-97.2v-29.6zM3522.9 864.7c0 78.8-25.6 106.8-98 106.8h-161.6c-78.4 0-103.2-35.2-103.2-108.4v-79.2c0-73.2 24.8-108.4 103.2-108.4h148c52 0 107.6 12.8 107.6 79.6v10.4h-36.8c0-54-16.4-58-113.2-58h-101.6c-37.6 0-68 11.2-68 61.6v108.8c0 50.4 30.4 61.6 68 61.6h153.2c39.2 0 63.2-13.6 63.2-53.6v-29.2h-148.4v-32h187.6v40zM3592.1 678.7h284.4v32h-245.2v92.4h235.6v32h-235.6v101.2h246.8v32h-286V678.7z"/><path fill="#FFF" stroke="#FFF" stroke-width="50" stroke-miterlimit="10" d="M94.6 637.8l1884.2-171"/><path fill="none" stroke="#FFF" stroke-width="50" stroke-miterlimit="10" d="M1978.8 353.8l1890.2 267"/></svg>