<svg xmlns="http://www.w3.org/2000/svg" xmlns:xlink="http://www.w3.org/1999/xlink" viewBox="0 0 3992 512"><defs><path d="M126.9 0c169.9 0 169.9 252.4 0 252.4C-42.2 252.4-42.4 0 126.9 0zm0 56.3c-82.1 0-81.6 139.8 0 139.8 82.4 0 82.5-139.8 0-139.8z" id="a"/><path d="M99.626 37.575c19-50 95-50.2 114.5 0 104.4 269.6 99.1 252.7 99.1 262.8 0 41.6-57.9 52.1-72.1 14.4l-13-35.9h-142.4l-13.5 35.9c-13.8 36.8-72.1 28.4-72.1-14.4 0-10.1-7.8 12.9 99.5-262.8zm57.3 36.2l-51.7 142.9h103.5l-51.8-142.9z" id="b"/><path d="M124.4 0C210 0 243.9 75.1 243.9 117.5c0 15.5-13 28.9-29.3 28.9H66.3c6.9 52.2 66.5 70 115.9 43.8 18.2-9.1 39.3 4.1 39.3 22.4 0 28.3-61.3 39.8-93 39.8C55.3 252.4 0 203.2 0 126 0 56.3 51.2 0 124.4 0zm59.3 103.6C179 35 74.6 30.2 65.1 103.6z" id="c"/><path d="M126.9 0c169.6 0 170.1 252.4 0 252.4C-42.2 252.4-42.4 0 126.9 0zm0 56.3c-82 0-81.8 139.8 0 139.8 82.4 0 82.5-139.8 0-139.8z" id="d"/><path d="M127.5 0C213 0 245.4 75.1 245.4 117.5c-.2 15.5-13 28.9-29.3 28.9H66.3c7 52.2 68.1 70 117.5 43.8 18.2-9.1 39.3 4.1 39.3 22.4 0 28.3-59.8 39.8-91.5 39.8C58.3 252.4 0 203.2 0 126 0 56.3 54.3 0 127.5 0zM185 103.6c-4.2-68.3-110.4-74.4-120.1 0z" id="e"/></defs><g fill="none" fill-rule="evenodd"><g fill-rule="nonzero"><path d="M454.6 0H57.4C25.9 0 0 25.9 0 57.4v397.3C0 486.1 25.9 512 57.4 512h397.3c31.4 0 57.4-25.9 57.4-57.4V57.4C512 25.9 486.1 0 454.6 0z" fill="#329AF0"/><path d="M395.7 324.9c0 4.8-4.1 6.9-8.9 8.9-19.2 8.1-39.7 15.7-61.5 15.7-40.5 0-68.7-44.8-163.2 2.5v51.8c0 30.3-45.7 30.2-45.7 0v-250c-9-7-15-17.9-15-30.3 0-21 17.1-38.2 38.2-38.2 21 0 38.2 17.1 38.2 38.2 0 12.2-5.8 23.2-14.9 30.2v21c37.1-12 65.5-34.4 146.1-3.4 26.6 11.4 68.7-15.7 76.5-15.7 5.5 0 10.3 4.1 10.3 8.9v160.4h-.1z" fill="#FFF"/></g><path d="M828.6 150.7h-137v70.1H825c39.8 0 40.4 62.2 0 62.2H691.6v105.6c0 45.5-70.7 46.4-70.7 0V128.3c0-22 18-39.8 39.8-39.8h167.8c39.6 0 40.5 62.2.1 62.2z" fill="#FFF" fill-rule="nonzero"/><use fill="#FFF" fill-rule="nonzero" xlink:href="#a" transform="translate(892.8 174.1)"/><path d="M1392.1 423.6c-17.5 0-31.4-13.9-31.4-31.4v-117c0-62.4-72.6-52.5-99.1-16.4v133.4c0 41.5-63.3 41.8-63.3 0V208c0-40 63.1-41.6 63.1 0v3.4c43.3-51.6 162.402-60.4 162.402 39.3v141.5c.298 30.4-31.502 31.4-31.702 31.4zM1571.8 426.5c-44.3 0-68.3-22.9-68.3-65.8V235.2H1488c-35.6 0-36.7-55.3 0-55.3h15.5v-37.3c0-41.3 63.8-42.1 63.8 0v37.5h24.9c35.4 0 35.7 55.3 0 55.3h-24.9v108.5c0 29.6 26.1 26.3 27.4 26.3 31.4 0 52.6 56.3-22.9 56.3z" fill="#FFF" fill-rule="nonzero"/><use fill="#FFF" fill-rule="nonzero" xlink:href="#b" transform="translate(1777.874 85.425)"/><path d="M2474.4 216.5l-53.7 176.3c-12.4 41.2-72 41-84 0l-42.3-135.9-42.3 135.9c-12.4 40.9-72 41.2-84.5 0l-54.2-176.3c-12.5-39.4 49.8-56.1 60.2-16.9L2213 342l45.3-139.5c10.9-32.7 59.6-34.7 71.2 0l45.3 139.5 39.3-142.4c10.3-38.3 72.6-23.8 60.3 16.9z" fill="#FFF" fill-rule="nonzero"/><use fill="#FFF" fill-rule="nonzero" xlink:href="#c" transform="translate(2505.9 174.1)"/><path d="M2887.7 426.5c-31.4 0-81.6-10.5-96.6-31.9-12.4-17 2.5-39.8 21.8-39.8 16.3 0 36.8 22.9 77.7 22.9 27.4 0 40.4-11 40.4-25.8 0-39.8-142.9-7.4-142.9-102 0-40.4 35.3-75.7 98.6-75.7 31.4 0 74.1 9.9 87.6 29.4 10.8 14.8-1.4 36.2-20.9 36.2-15.1 0-26.7-17.3-66.2-17.3-22.9 0-37.8 10.5-37.8 23.8 0 35.9 142.4 6 142.4 103.1-.1 43.7-37.4 77.1-104.1 77.1z" fill="#FFF" fill-rule="nonzero"/><use fill="#FFF" fill-rule="nonzero" xlink:href="#d" transform="translate(3027.6 174.1)"/><path d="M3631.4 392.2V268.7c0-53.8-61.4-45.8-85.7-10.5v134c0 41.3-63.8 42.1-63.8 0V268.7c0-52.1-59.5-47.4-85.7-10.1v133.6c0 41.5-63.3 41.8-63.3 0V208c0-40 63.1-41.6 63.1 0v3.4c9.9-14.4 41.8-37.3 78.6-37.3 35.3 0 57.7 16.4 66.7 43.8 13.9-21.8 45.8-43.8 82.6-43.8 44.3 0 70.7 23.4 70.7 72.7v145.3c.5 17.3-13.5 31.4-31.9 31.4 3.5.1-31.3 1.1-31.3-31.3z" fill="#FFF" fill-rule="nonzero"/><use fill="#FFF" fill-rule="nonzero" xlink:href="#e" transform="translate(3746.6 174.1)"/></g></svg>