<svg xmlns="http://www.w3.org/2000/svg" viewBox="0 0 288 96"><defs><clipPath id="a" clipPathUnits="userSpaceOnUse"><path d="M0 72h216V0H0z"/></clipPath></defs><path d="M42.94 58.561l-9.697-.825v25.161H21.607V57.736l-9.792.825v-9.648H42.94zM73.142 82.897H46.915V48.913h26.227v8.144h-14.64v4.752h14.3v8.484h-14.3v4.799h14.64z" fill="#5b7fb6"/><g clip-path="url(#a)" transform="matrix(1.33333 0 0 -1.33333 0 96)"><path d="M84.308 17.972c-.825-2.885-2.436-5.14-4.835-6.763-2.279-1.55-4.97-2.327-8.074-2.327-3.829 0-7.126 1.29-9.889 3.872-2.763 2.582-4.145 5.776-4.145 9.58 0 3.83 1.406 7.03 4.218 9.6 2.74 2.52 6.036 3.782 9.89 3.782 2.957 0 5.54-.703 7.745-2.108 2.327-1.48 3.963-3.577 4.908-6.291l-7.89-2.836c-.752 2.132-2.315 3.199-4.69 3.199-1.577 0-2.855-.531-3.836-1.592-.982-1.062-1.474-2.386-1.474-3.971 0-1.441.528-2.667 1.582-3.68 1.055-1.013 2.297-1.52 3.727-1.52 2.303 0 3.867 1.067 4.691 3.2zM111.178 9.827h-8.727v8.69h-6.544v-8.69H87.18v25.488h8.727v-8.653h6.544v8.653h8.727z" fill="#5b7fb6"/><path d="M138.044 28.916h-10.98v-4.945h9.999v-6.363h-10V9.827h-8.69v25.488h19.67zM160.55 9.827h-19.67v25.488h19.67v-6.108h-10.98v-3.564h10.726V19.28H149.57v-3.599h10.98zM184.185 18.663c0-2.909-1.115-5.26-3.345-7.055-2.085-1.672-4.618-2.508-7.6-2.508-5.26 0-8.641 2.023-10.143 6.072l6.217 2.327c.945-1.745 2.193-2.618 3.745-2.618 1.818 0 2.728.631 2.728 1.89 0 .825-.474 1.37-1.42 1.637-.387.121-1.187.218-2.4.29-2.52.146-4.545.897-6.07 2.255-1.626 1.454-2.438 3.405-2.438 5.855 0 2.884 1.103 5.163 3.31 6.834 1.987 1.504 4.472 2.255 7.453 2.255 5.09 0 8.145-1.926 9.162-5.78l-5.962-2.328c-.606 1.696-1.71 2.545-3.31 2.545-1.743 0-2.616-.618-2.616-1.855 0-.775.484-1.308 1.454-1.599.436-.122 1.236-.218 2.4-.29 5.89-.34 8.835-2.983 8.835-7.927M207.853 28.08l-7.27.618V9.828h-8.727v18.87l-7.345-.619v7.236h23.343z" fill="#713682"/><path d="M18.31 51.908v6.46h-.645c-.516 0-.885.102-1.108.304-.223.204-.334.532-.334.986 0 .453.11.784.334.99.223.208.592.31 1.108.31h3.33c.508 0 .875-.102 1.102-.31.227-.206.34-.537.34-.99 0-.415-.108-.733-.323-.956-.214-.222-.521-.334-.92-.334h-.2V47.722c0-.367-.038-.597-.117-.691-.077-.095-.254-.141-.527-.141h-1.173c-.374 0-.638.039-.791.117-.153.078-.283.215-.393.41l-4.877 8.57v-6.366h.68c.508 0 .87-.097 1.09-.293.219-.195.328-.52.328-.973 0-.461-.111-.793-.333-.997-.223-.202-.585-.304-1.085-.304H10.43c-.508 0-.875.102-1.102.304-.227.204-.34.536-.34.997 0 .414.106.729.317.944.21.215.524.322.938.322h.187v8.747h-.187c-.4 0-.708.112-.927.334-.218.223-.328.54-.328.956 0 .453.115.784.346.99.23.208.596.31 1.096.31h1.923c.46 0 .774-.06.938-.181.164-.12.348-.365.55-.733zM27.473 58.368l.422-6.871 1.442 5.065c.11.375.289.657.539.845.25.187.575.28.973.28.399 0 .718-.09.956-.27.238-.178.417-.464.533-.855l1.467-5.065.41 6.87h-.317c-.453 0-.79.106-1.008.317-.22.212-.33.536-.33.974 0 .468.11.803.33 1.002.218.199.598.299 1.137.299h2.825c.532 0 .909-.102 1.132-.305.223-.203.334-.536.334-.996 0-.422-.107-.743-.322-.961-.215-.22-.53-.33-.944-.33h-.2l-1.125-10.33c-.04-.405-.117-.671-.234-.796-.118-.125-.392-.187-.821-.187h-.552c-.328 0-.568.06-.72.18-.153.122-.303.438-.451.946l-2.146 6.963-2.064-6.963c-.141-.493-.287-.804-.44-.933-.152-.13-.396-.193-.732-.193h-.552c-.421 0-.69.06-.803.18-.113.122-.19.39-.228.804l-1.161 10.33h-.187c-.415 0-.731.109-.95.329-.22.218-.328.539-.328.96 0 .46.113.794.34.997.226.203.602.305 1.125.305h2.837c.532 0 .909-.102 1.132-.305.223-.203.334-.536.334-.996 0-.438-.11-.762-.328-.974-.22-.211-.56-.316-1.02-.316zM45.024 58.368l-1.7-4.947h3.4zm6.144-8.747h.199c.423 0 .743-.107.962-.322.218-.215.328-.53.328-.944 0-.461-.116-.793-.346-.997-.23-.202-.612-.304-1.143-.304h-3.53c-.538 0-.922.1-1.148.299-.227.199-.341.534-.341 1.002 0 .454.114.778.34.973.227.196.61.293 1.15.293h.41l-.481 1.372h-5.065L42 49.62h.41c.53 0 .912-.1 1.143-.298.23-.2.346-.522.346-.968 0-.461-.116-.793-.346-.997-.231-.202-.612-.304-1.143-.304h-3.025c-.54 0-.923.102-1.15.304-.226.204-.34.536-.34.997 0 .414.11.729.329.944.219.215.54.322.96.322h.2l3.143 8.747h-.938c-.532 0-.913.102-1.143.304-.231.204-.346.532-.346.986 0 .46.115.793.346.996.23.203.61.305 1.143.305h4.396c.696 0 1.185-.376 1.466-1.125v-.035zM59.668 51.298c.735 0 1.327-.202 1.776-.604.45-.403.675-.93.675-1.577 0-.656-.225-1.192-.675-1.606-.449-.414-1.041-.621-1.776-.621-.719 0-1.305.209-1.759.626-.453.419-.679.953-.679 1.6 0 .64.226 1.165.679 1.573.454.405 1.04.609 1.759.609m0 6.249c.735 0 1.323-.201 1.765-.603.442-.403.662-.93.662-1.578 0-.665-.223-1.204-.668-1.618-.446-.414-1.032-.621-1.759-.621-.719 0-1.305.209-1.759.627-.453.418-.679.955-.679 1.612 0 .649.224 1.175.674 1.578.449.402 1.037.603 1.764.603M69.693 61.627a4.875 4.875 0 00-.27.657 1.538 1.538 0 00-.071.445c0 .336.139.617.417.844.277.226.596.341.955.341a.875.875 0 00.628-.27c.183-.18.38-.509.592-.985l6.87-14.69c.133-.282.223-.504.27-.663.047-.16.07-.307.07-.44 0-.329-.145-.608-.434-.84a1.506 1.506 0 00-.961-.345.857.857 0 00-.615.258c-.177.172-.374.496-.593.974zM91.16 54.451l-7.644 3.623c-.415.204-.71.41-.885.616a1.095 1.095 0 00-.264.733c0 .328.098.593.293.797.195.204.458.304.786.304.125 0 .267-.023.428-.07.16-.046.389-.137.686-.27l9.286-4.337.093-.059c.868-.398 1.302-.86 1.302-1.383 0-.524-.418-.974-1.255-1.349a.936.936 0 00-.188-.093l-9.274-4.257a4.085 4.085 0 00-.604-.234 1.756 1.756 0 00-.474-.07c-.328 0-.591.1-.786.3-.195.198-.293.465-.293.802 0 .281.084.521.252.72.168.2.467.401.897.605zM95.486 43.594h14.831v-2.203H95.486z" fill="white"/></g></svg>