<svg xmlns="http://www.w3.org/2000/svg" width="100%" viewBox="0 0 228 62"><g fill="#FFF" fill-rule="nonzero"><path d="M16.477 48.72A19.346 19.346 0 016.17 31.596c0-8.876 5.957-16.354 14.073-18.626.774-2.518 1.662-4.65 2.581-6.459C10.181 7.813.321 18.55.321 31.595a25.217 25.217 0 0015.653 23.364 85.75 85.75 0 01.503-6.238zM38.193 9.888c.101 2.044.044 4.372-.277 7.004a19.325 19.325 0 016.75 14.703c0 10.103-7.713 18.39-17.542 19.258A91.134 91.134 0 0125.06 56.8c.12 0 .24.006.36.006 13.857 0 25.096-11.293 25.096-25.218a25.25 25.25 0 00-12.322-21.7zM23.775 40.578c-1.178-.253-1.965-1.626-2.254-2.214-.044-.082-.17-.063-.19.025C18.455 52.2 19.01 60.197 19.16 61.772c.006.095.132.12.176.038.78-1.379 4.52-8.458 7.48-22.244.019-.088-.088-.158-.157-.095-.485.424-1.713 1.36-2.884 1.107z"/><path d="M35.165 30.38l-2.966-2.227a.199.199 0 01-.069-.221c6.196-18.645.944-26.68.164-27.723-.057-.07-.145-.095-.227-.05-1.133.638-9.186 5.826-11.069 25.394a.194.194 0 01-.151.17c-.598.14-3.016.684-3.608.823a.202.202 0 00-.15.17l-1.392 12.319c-.02.19.207.29.333.158l5.195-5.447c.1-.108.277-.07.327.07.328.923 1.398 3.656 2.701 3.966 1.304.31 3.356-1.79 4.017-2.524.101-.108.277-.07.328.07l2.537 7.091c.063.178.315.171.372-.006L35.22 30.59c.038-.076.013-.158-.056-.209zM24.51 33.088s-2.77-2.341.416-15.601c1.87-7.795 5.472-12.23 5.472-12.23l-5.888 27.83z"/><g><path d="M73.184 36.234H69.93v12.041h-6.556v-32.96h10.463c1.618 0 3.066.217 4.336.647 1.271.43 2.352 1.065 3.237 1.9.885.84 1.562 1.872 2.03 3.11.467 1.239.701 2.67.701 4.299 0 1.193-.107 2.264-.322 3.226a9.993 9.993 0 01-.936 2.56 8.143 8.143 0 01-1.485 1.957 9.565 9.565 0 01-1.967 1.45l5.69 13.49v.315h-7.049l-4.887-12.035zm-3.255-5.55h3.723c1.309 0 2.289-.442 2.946-1.32.651-.886.98-2.066.98-3.542 0-.757-.07-1.437-.215-2.046a4.357 4.357 0 00-.67-1.559 3.046 3.046 0 00-1.17-.994c-.474-.231-1.043-.353-1.694-.353h-3.907v9.815h.007zM105.42 34.014H95.203v8.738h12.094v5.523h-18.65v-32.96h18.606v5.548h-12.05v7.788h10.217zM122.552 39.217l5.468-23.903h7.314l-9.368 32.961h-6.828l-9.3-32.96h7.27zM160.426 15.314v22.64c0 1.917-.266 3.553-.79 4.913-.531 1.36-1.265 2.47-2.207 3.336-.942.866-2.073 1.508-3.382 1.912-1.308.41-2.737.61-4.286.61-1.574 0-3.022-.206-4.337-.61-1.315-.41-2.446-1.046-3.388-1.912-.942-.866-1.682-1.982-2.207-3.336-.53-1.36-.79-2.996-.79-4.914V15.314h6.606v22.64c0 1.083.089 1.969.266 2.649.177.68.442 1.212.79 1.597.348.385.784.648 1.296.795a6.708 6.708 0 001.777.219c.67 0 1.258-.071 1.776-.219.512-.14.942-.41 1.283-.795.342-.385.6-.917.784-1.597.177-.68.266-1.56.266-2.65V15.314h6.543zM188.11 48.275h-6.557l-9.59-21.619v21.62h-6.556V15.313h6.556l9.616 21.638V15.314h6.537v32.961zM200.228 48.275h-6.556v-32.96h6.556zM227.684 20.863h-8.029v27.412h-6.58V20.863h-7.897v-5.549h22.506z"/></g></g></svg>