<svg id="Layer_1" data-name="Layer 1" width="100%" xmlns="http://www.w3.org/2000/svg" viewBox="0 0 529.5 125.02"><defs><style>.cls-1{fill:#fff}.cls-2{opacity:.7}</style></defs><path class="cls-1" d="M381.94 122c-1-.25-2.16-.51-3.5-.79a21.85 21.85 0 00-4.32-.41 20.85 20.85 0 00-2.49.19 15.15 15.15 0 00-2.2.41v29.95h-11.1v-37.1a67 67 0 017-2 40.54 40.54 0 019.05-.93c.6 0 1.31 0 2.16.11s1.69.18 2.53.3 1.69.28 2.54.45a11.69 11.69 0 012.16.63zM402.63 100.44a6.12 6.12 0 01-2 4.81 7.08 7.08 0 01-9.32 0 6.86 6.86 0 010-9.62 7.08 7.08 0 019.32 0 6.12 6.12 0 012 4.81z" transform="translate(-89.3 -93.54)"/><path class="cls-1" d="M301.19 18.63h11.1v39.19h-11.1z"/><path class="cls-1" d="M408.71 131.76a23.32 23.32 0 011.37-8 18.75 18.75 0 0110.32-11 21 21 0 018.5-1.64 26.63 26.63 0 0110.8 2.16l-2.31 8.87a27.82 27.82 0 00-3.39-1.05 17.79 17.79 0 00-4.17-.44c-3.28 0-5.73 1-7.34 3a12.61 12.61 0 00-2.42 8q0 5.28 2.27 8.19c1.52 1.94 4.16 2.91 7.94 2.91a27.08 27.08 0 004.32-.38 17.72 17.72 0 004.24-1.19l1.57 9.09a26 26 0 01-4.84 1.42 32.59 32.59 0 01-6.41.59 24.06 24.06 0 01-9.24-1.6 17.4 17.4 0 01-6.37-4.36 17 17 0 01-3.65-6.52 27.59 27.59 0 01-1.19-8.05zM447.12 151.35v-56l11.1-1.79v18.77a23.77 23.77 0 012.86-.71 18.34 18.34 0 013.39-.33 21 21 0 017.94 1.3 12.27 12.27 0 015.06 3.69 14.37 14.37 0 012.69 5.66 31.61 31.61 0 01.78 7.3v22.13h-11.1v-20.81c0-3.57-.46-6.11-1.38-7.59s-2.62-2.24-5.1-2.24a14.56 14.56 0 00-2.8.26c-.87.18-1.65.36-2.34.56v29.8zM356.66 194a23.09 23.09 0 011.38-8 19.07 19.07 0 014-6.55 18.87 18.87 0 016.33-4.44 20.91 20.91 0 018.49-1.64 27.59 27.59 0 015.74.56 28.88 28.88 0 015.06 1.6l-2.31 8.87a26.06 26.06 0 00-3.42-1 17.92 17.92 0 00-4.18-.45c-3.27 0-5.72 1-7.33 3A12.56 12.56 0 00368 194c0 3.53.75 6.26 2.27 8.2s4.16 2.9 7.93 2.9a27 27 0 004.32-.37 18.78 18.78 0 004.25-1.19l1.56 9.09a26.65 26.65 0 01-4.84 1.41 31.75 31.75 0 01-6.41.6 24.24 24.24 0 01-9.23-1.6 17.43 17.43 0 01-6.37-4.36 16.93 16.93 0 01-3.65-6.52 27.7 27.7 0 01-1.17-8.16zM428.24 185.54a18.71 18.71 0 00-3.95-6.48 17.66 17.66 0 00-6.07-4.18 20.87 20.87 0 00-15.49 0 18.12 18.12 0 00-6.11 4.18 18.88 18.88 0 00-4 6.48 23.58 23.58 0 00-1.45 8.42 24.09 24.09 0 001.42 8.45 19.17 19.17 0 003.95 6.56 17.47 17.47 0 006.07 4.21 21.66 21.66 0 0015.79 0 17.56 17.56 0 006.07-4.21 18.42 18.42 0 003.88-6.56 25.56 25.56 0 001.34-8.45 23.8 23.8 0 00-1.45-8.42zm-11.95 16.57a6.67 6.67 0 01-5.85 3 6.75 6.75 0 01-5.89-3 14.12 14.12 0 01-2.08-8.15q0-5.15 2.08-8.09a6.79 6.79 0 015.89-2.94 6.71 6.71 0 015.85 2.94q2 2.94 2 8.09a14.35 14.35 0 01-2 8.15zM437.63 175.78a64.39 64.39 0 0116.69-2.24 22.83 22.83 0 018.3 1.31 12.64 12.64 0 015.26 3.68 14.43 14.43 0 012.75 5.67 29.92 29.92 0 01.82 7.3v22.12h-11.1v-20.78q0-5.37-1.41-7.6t-5.29-2.24c-.8 0-1.64 0-2.54.12s-1.69.16-2.38.26v30.24h-11.1zM480.56 164.68l11.1-1.79v11.55H505v9.23h-13.34v13.79a11 11 0 001.22 5.58c.83 1.4 2.48 2.09 5 2.09a21.61 21.61 0 003.69-.33 19.34 19.34 0 003.46-.94l1.57 8.65a31.8 31.8 0 01-4.47 1.41 25.9 25.9 0 01-6 .6 19.8 19.8 0 01-7.52-1.23 11.74 11.74 0 01-4.77-3.43 12.74 12.74 0 01-2.5-5.32 31.64 31.64 0 01-.7-6.93zM541.12 178.5q-4.85-5.1-13.18-5.11a18.67 18.67 0 00-7 1.35 17.58 17.58 0 00-6 3.94 19.57 19.57 0 00-4.21 6.52 24.13 24.13 0 00-1.6 9.13 25.46 25.46 0 001.23 8 17 17 0 003.8 6.45 17.85 17.85 0 006.48 4.28 24.58 24.58 0 009.2 1.57 39.18 39.18 0 004.18-.23c1.38-.15 2.69-.33 3.91-.56a30 30 0 003.31-.78 15.77 15.77 0 002.39-.89l-1.49-9a22.5 22.5 0 01-4.81 1.38 32.28 32.28 0 01-6 .56 12.89 12.89 0 01-7.6-2 7.39 7.39 0 01-3.2-5.44h25.18c0-.6.1-1.28.15-2.05s.07-1.47.07-2.12q.07-9.9-4.81-15zm-20.56 11.58a15.44 15.44 0 01.71-2.79 7.31 7.31 0 011.38-2.42 6.5 6.5 0 012.23-1.68 7.5 7.5 0 013.21-.63 7 7 0 013.24.67 6.61 6.61 0 013.42 4.1 11.1 11.1 0 01.49 2.75zM570.06 185.42l7.79-11h11.48l-13.61 19.05a115.65 115.65 0 018.28 10.7 98.73 98.73 0 015.82 9.45h-11.88l-1.5-2.79q-.88-1.68-2-3.51a17.93 17.93 0 00-2.33-3.09 42.31 42.31 0 00-2.39-2.31c-.75.65-1.52 1.36-2.29 2.14a14.87 14.87 0 00-2.21 2.91c-.7 1.17-1.39 2.32-2.06 3.46s-1.27 2.2-1.79 3.19h-11.3c.63-1.22 1.45-2.68 2.48-4.38s2.14-3.46 3.36-5.27 2.55-3.56 4-5.27 2.82-3.31 4.19-4.81l-7-10-6.67-9.47h12zM592.79 164.68l11.1-1.79v11.55h13.34v9.23h-13.34v13.79a10.91 10.91 0 001.23 5.58c.82 1.4 2.47 2.09 5 2.09a21.61 21.61 0 003.69-.33 19.34 19.34 0 003.46-.94l1.56 8.65a31.39 31.39 0 01-4.47 1.41 25.81 25.81 0 01-6 .6 19.8 19.8 0 01-7.52-1.23 11.74 11.74 0 01-4.77-3.43 12.62 12.62 0 01-2.5-5.32 31.61 31.61 0 01-.71-6.93z" transform="translate(-89.3 -93.54)"/><g class="cls-2"><circle class="cls-1" cx="57.03" cy="67.5" r="54.03"/><path class="cls-1" d="M146.32 110a51 51 0 11-51 51 51.09 51.09 0 0151-51m0-6a57 57 0 1057 57 57 57 0 00-57-57z" transform="translate(-89.3 -93.54)"/></g><g opacity=".83"><circle class="cls-1" cx="118.14" cy="68" r="54.03"/><path class="cls-1" d="M207.44 110.5a51 51 0 11-51 51 51.09 51.09 0 0151-51m0-6a57 57 0 1057 57 57 57 0 00-57-57z" transform="translate(-89.3 -93.54)"/></g><g class="cls-2"><circle class="cls-1" cx="179.14" cy="67.5" r="57.03"/></g></svg>