<svg version="1.1" id="Layer_1" width="100%" xmlns="http://www.w3.org/2000/svg" x="0" y="0" viewBox="0 0 648 144" xml:space="preserve"><style>.st1{fill:#fff}.st4{display:inline}</style><path fill="#f36a22" d="M187 27.8H29.1v15.4H74v73.3h17.1V43.2H187z"/><path class="st1" d="M589 89.7c8.3-2 14.8-5.5 19.6-10.5 5.2-5.4 7.8-11.8 7.8-19.2 0-10.9-4.5-19.2-13.4-24.8-7.8-4.9-18-7.4-30.8-7.4h-70.7v75.1l-43.4-66.6c-1.4-2.3-3.3-4.2-5.6-5.8-2.7-1.9-5.3-2.9-7.8-2.9-2.3 0-4.9 1-7.8 3-2.4 1.7-4.3 3.6-5.6 5.7L388 101h-66.7V27.8H220c-8.6 0-15.7 2.1-21.5 6.4-6.2 4.6-9.2 10.6-9.2 18.1 0 7.5 3.1 13.6 9.2 18.2 5.8 4.2 12.9 6.4 21.5 6.4h46.5c4.7 0 8.8.9 12.1 2.7 4 2.2 6.1 5.2 6.1 9.2 0 4-2 7.1-5.9 9.5-3.5 1.9-7.6 2.9-12.3 2.9H102.3v15.5h164.1c9.5 0 17.5-2.4 23.8-7.1 6.6-5.1 10-11.9 10-20.3s-3.3-15.2-10-20.4c-6.4-4.9-14.3-7.4-23.8-7.4H220c-3.3 0-6.1-.8-8.4-2.3-2.3-1.6-3.5-3.8-3.5-6.6s1.2-5 3.5-6.6c2.3-1.6 5.1-2.5 8.4-2.5h84.1v73.3h85v-.1h10.7L444.3 51l17.2 25.6h-22l-10.4 15.3h42.6l16.6 24.8 13.2.1v.1h17.2V43.2H575c15.6 0 23.4 5.5 23.4 16.6 0 5.5-2.5 9.7-7.4 12.6-4.3 2.5-9.7 3.8-16 3.8h-46.2v15.3h37.1l27.6 24.9h25.4L589 89.7z"/><path class="st1" d="M102.7 61.6H187v15.1h-84.3z"/></svg>